Poster: 
http://imgh.us/MV5BMjE2NDEyNzAwOF5BMl5BanBnXkFtZTcwMjk5OTk0Nw@@._V1._SY317_CR12,0,214,317_.jpg

Info:

Format                                   : AVI
Format/Info                              : Audio Video Interleave
File size                                : 859 MiB
Duration                                 : 1h 25mn
Overall bit rate                         : 1 409 Kbps
Movie name                               : The pregnancy Project Lifetime 2012.Title1.DVDRip
Writing application                      : Lavf53.21.0
Original source form/Name                : The pregnancy Project Lifetime 2012

Video
ID                                       : 0
Format                                   : MPEG-4 Visual
Format profile                           : Advanced Simple@L5
Format settings, BVOP                    : 2
Format settings, QPel                    : No
Format settings, GMC                     : No warppoints
Format settings, Matrix                  : Default (H.263)
Muxing mode                              : Packed bitstream
Codec ID                                 : XVID
Codec ID/Hint                            : XviD
Duration                                 : 1h 25mn
Bit rate                                 : 1 141 Kbps
Width                                    : 720 pixels
Height                                   : 404 pixels
Display aspect ratio                     : 16:9
Frame rate                               : 29.970 fps
Color space                              : YUV
Chroma subsampling                       : 4:2:0
Bit depth                                : 8 bits
Scan type                                : Progressive
Compression mode                         : Lossy
Bits/(Pixel*Frame)                       : 0.131
Stream size                              : 695 MiB (81%)
Writing library                          : XviD 1.2.1 (UTC 2008-12-04)

Audio
ID                                       : 1
Format                                   : AC-3
Format/Info                              : Audio Coding 3
Mode extension                           : CM (complete main)
Format settings, Endianness              : Big
Codec ID                                 : 2000
Duration                                 : 1h 25mn
Bit rate mode                            : Constant
Bit rate                                 : 256 Kbps
Channel(s)                               : 2 channels
Channel positions                        : Front: L R
Sampling rate                            : 48.0 KHz
Bit depth                                : 16 bits
Compression mode                         : Lossy
Stream size                              : 156 MiB (18%)
Alignment                                : Aligned on interleaves
Interleave, duration                     : 32 ms (0.96 video frame)


SCREENS: 
http://img.photobucket.com/albums/v291/serious/vlcsnap-2012-07-08-08h30m35s249.png 
http://img.photobucket.com/albums/v291/serious/vlcsnap-2012-07-08-08h30m51s156.png 
http://img.photobucket.com/albums/v291/serious/vlcsnap-2012-07-08-08h30m57s218.png 
http://img.photobucket.com/albums/v291/serious/vlcsnap-2012-07-08-08h31m03s23.png 
http://img.photobucket.com/albums/v291/serious/vlcsnap-2012-07-08-08h31m29s29.png 
http://img.photobucket.com/albums/v291/serious/vlcsnap-2012-07-08-08h31m35s85.png 
http://img.photobucket.com/albums/v291/serious/vlcsnap-2012-07-08-08h31m37s105.png



